<svg width="268" height="268" fill="none" xmlns="http://www.w3.org/2000/svg" class="BlockBackgroundSwitcher_background__bU8XE" style="left:0;bottom:0" data-background="true"><path fill-rule="evenodd" clip-rule="evenodd" d="M80.4 217.5v-3.1h3.1V201h.5v13.4h3.1v6.7h-6.7V218H67v-.5h13.4zM117 201v13.4h-9.8v6.7h9.8-3.1v13.4h3.1-3.1v6.7h3.1-3.1v6.7-6.7h-6.7v6.7-6.7h-6.7v6.7-6.7H80.4v9.8H67v.5h13.4v3.1h3.1-3.1l3.1 1.55V268h.5v-11.6l16.5 8.25 16.5-8.25V268h.5v-11.85l3.1-1.55h-3.1 3.1v-3.1H134v-.5h-13.4v-9.8h-3.1 3.1v-6.7h-3.1 3.1v-13.4h-3.1 3.1V218H134v-.5h-13.4v-3.1h-3.1V201h-.5zm-16.5 53.6H117 84h16.5zm-6.7-40.2h6.7v6.7h-6.7v-6.7zm0 6.7h-6.7v6.7h-6.7v6.7h6.7v-6.7h6.7v-6.7zm0 6.7h6.7v6.7h-6.7v-6.7zm0 6.7h-6.7v6.7h6.7v-6.7zm0 0h6.7v6.7h-6.7v-6.7zm13.4 0h-6.7v6.7h6.7v-6.7zm6.7 0h-6.7v-13.4h6.7v13.4zm-13.4-13.4h6.7v13.4h-6.7v-13.4zm6.7 13.4h6.7v6.7h-6.7v-6.7z" fill="#32E1A9" style="animation-delay: 11s; animation-duration: 2s;"></path><path fill-rule="evenodd" clip-rule="evenodd" d="M16.5 0v16.5H0v.5h17V0h-.5zm34 12.4h4.1v4.1H67v.5H54.6v4.1H50.197A17.287 17.287 0 0 1 39.302 33h7.635a3.35 3.35 0 1 1 0 1H37.85v3.85h-8.7v-3.261a16.283 16.283 0 0 0-11.311 11.31h3.26v8.7H17V67h-.5V54.6h-4.1v-4.1H0V50h12.4v-4.1H16.803A17.287 17.287 0 0 1 27.7 34h-7.636a3.35 3.35 0 1 1 0-1h9.087v-3.85h8.7v3.261A16.283 16.283 0 0 0 49.162 21.1H45.9v-8.7H50V0h.5v12.4zM50.25 50H50v17h.5V50.5H67V50H50.25zM14.4 52.6v-4.7h4.7v4.7h-4.7zm16.75-16.75h4.7v-4.7h-4.7v4.7zM47.9 19.1v-4.7h4.7v4.7h-4.7zM16.5 268v-16.5H0v-.5h17v17h-.5zm34-12.4h4.1v-4.1H67v-.5H54.6v-4.1H50.197A17.287 17.287 0 0 0 39.302 235h7.635a3.35 3.35 0 1 0 0-1H37.85v-3.85h-8.7v3.261A16.283 16.283 0 0 1 17.839 222.1h3.26v-8.7H17V201h-.5v12.4h-4.1v4.1H0v.5h12.4v4.1H16.803A17.287 17.287 0 0 0 27.7 234h-7.636a3.351 3.351 0 1 0 0 1h9.087v3.85h8.7v-3.261A16.282 16.282 0 0 1 49.162 246.9H45.9v8.7H50V268h.5v-12.4zm-.25-37.6H50v-17h.5v16.5H67v.5H50.25zm-35.85-2.6v4.7h4.7v-4.7h-4.7zm16.75 16.75h4.7v4.7h-4.7v-4.7zM47.9 248.9v4.7h4.7v-4.7h-4.7z" fill="#4E7CDC" style="animation-delay: 15.2s; animation-duration: 2s;"></path><path fill-rule="evenodd" clip-rule="evenodd" d="M117 140.7V134h.5v6.7h3.1v6.7h6.7v3.1h6.7v.5h-6.7v3.1h-9.8 3.1v6.7h-3.1V184H134v.5h-16.5V201h-.5v-16.5H93.79a3.35 3.35 0 1 1 0-.5H117v-23.2h-3.1v-6.7h3.1-3.1V151v3.1h-6.7V151H84v23.209a3.35 3.35 0 1 1-.5 0V151H67v-.5h16.5V134h.5v16.5h23.2v-3.1h6.7v3.1-9.8h3.1zm-43.29 43.8H67v-.5h6.71a3.35 3.35 0 1 1 0 .5zM84 194.291V201h-.5v-6.709a3.35 3.35 0 1 1 .5 0z" fill="#32E1A9" style="animation-delay: 14.6s; animation-duration: 2s;"></path><path fill-rule="evenodd" clip-rule="evenodd" d="M218 207.7V201h-.5v6.7h-3.1v6.7h-6.7v3.1H201v.5h6.7v3.1h9.8-3.1v6.7h3.1V251H201v.5h16.5V268h.5v-16.5h23.209a3.35 3.35 0 1 0 0-.5H218v-23.2h3.1v-6.7H218h3.1V218v3.1h6.7V218H251v23.209a3.35 3.35 0 1 0 .5 0V218H268v-.5h-16.5V201h-.5v16.5h-23.2v-3.1h-6.7v3.1-9.8H218zm43.291 43.8H268v-.5h-6.709a3.35 3.35 0 1 0 0 .5zM251 261.291V268h.5v-6.709a3.35 3.35 0 1 0-.5 0zM50 73.7V67h.5v6.7h3.1v6.7h6.7v3.1H67v.5h-6.7v3.1h-9.8 3.1v6.7h-3.1V117H67v.5H50.5V134H50v-16.5H26.79a3.35 3.35 0 1 1 0-.5H50V93.8h-3.1v-6.7H50h-3.1V84v3.1h-6.7V84H17v23.209a3.35 3.35 0 1 1-.5 0V84H0v-.5h16.5V67h.5v16.5h23.2v-3.1h6.7v3.1-9.8H50zM6.71 117.5H0v-.5h6.71a3.35 3.35 0 1 1 0 .5zM17 127.291V134h-.5v-6.709a3.35 3.35 0 1 1 .5 0z" fill="#4E7CDC" style="animation-delay: 3.4s; animation-duration: 2s;"></path><path fill-rule="evenodd" clip-rule="evenodd" d="M16.5 134v16.5H0v.5h16.5v24.875H8.375V184H0v.5h8.375v8.125H16.5V201h.5v-8.375h8.125V184.5H50V201h.5v-16.5H67v-.5H50.5v-24.875h8.125V151H67v-.5h-8.375v-8.125H50.5V134H50v8.375h-8.125v8.125H17V134h-.5zm25.375 17H17v24.875h7.418l17.457-17.457V151zm.707 8.125-17.457 17.457V184H50v-24.875h-7.418zM184.5 201v16.5H201v.5h-17v-17h.5zM151 217.75v.25h-17v-.5h16.5V201h.5v16.75zm50 33.75h-16.5V268h-.5v-17h17v.5zm-50.25-.5h.25v17h-.5v-16.5H134v-.5h16.75zm-1.675-18.175h3.35v3.35h-3.35v-3.35zm26.8-23.45h-3.35v3.35h3.35v-3.35zm-3.35 46.9h3.35v3.35h-3.35v-3.35zm-26.8-30.15h-3.35v3.35h3.35v-3.35zm43.55 0h3.35v3.35h-3.35v-3.35zm-20.1 26.8v-3.35h-3.35v3.35h3.35zm-26.8-13.4h3.35v3.35h-3.35v-3.35zm26.8-23.45h-3.35v3.35h3.35v-3.35zm20.1 23.45h3.35v3.35h-3.35v-3.35zm-26.8-30.15h-3.35v3.35h3.35v-3.35zm20.1 23.45h3.35v3.35h-3.35v-3.35zm-20.1 23.45h-3.35v3.35h3.35v-3.35zM159.45 234.5a8.05 8.05 0 1 0 16.1 0 8.05 8.05 0 0 0-16.1 0zm-2 0c0 5.551 4.5 10.05 10.05 10.05 5.551 0 10.05-4.499 10.05-10.05 0-5.55-4.499-10.05-10.05-10.05-5.55 0-10.05 4.5-10.05 10.05z" fill="#32E1A9" style="animation-delay: 16.4s; animation-duration: 2s;"></path></svg>