<?xml version="1.0" standalone="no"?><!DOCTYPE svg PUBLIC "-//W3C//DTD SVG 1.1//EN" "http://www.w3.org/Graphics/SVG/1.1/DTD/svg11.dtd"><svg t="1648292357129" class="icon" viewBox="0 0 1024 1024" version="1.1" xmlns="http://www.w3.org/2000/svg" p-id="2769" xmlns:xlink="http://www.w3.org/1999/xlink" width="200" height="200"><defs><style type="text/css"></style></defs><path d="M192 96v832h640V307.2l-9.6-9.6-192-192-9.6-9.6H192z m64 64h320v192h192v512H256V160z m384 44.8L723.2 288H640V204.8zM320 416v64h384v-64H320z m112 96c-28.8 0-51.2 19.2-64 41.6-12.8 22.4-16 51.2-16 83.2 0 19.2 6.4 38.4 9.6 57.6-12.8 3.2-25.6 12.8-41.6 12.8v64c22.4 0 44.8-3.2 64-9.6 3.2 6.4 3.2 9.6 9.6 16 12.8 12.8 32 22.4 54.4 22.4 51.2 0 83.2-35.2 105.6-60.8 3.2-6.4 6.4-9.6 9.6-12.8 0 3.2 0 6.4 3.2 9.6 3.2 6.4 6.4 12.8 12.8 19.2 6.4 6.4 19.2 12.8 28.8 12.8 19.2 0 32-12.8 38.4-19.2 6.4-6.4 12.8-16 19.2-22.4 12.8-12.8 22.4-22.4 35.2-22.4v-64c-38.4 0-67.2 22.4-83.2 41.6 0-3.2 0-6.4-3.2-9.6-3.2-6.4-6.4-12.8-12.8-22.4-6.4-9.6-16-9.6-25.6-9.6-25.6 0-35.2 16-44.8 25.6-9.6 9.6-19.2 22.4-25.6 35.2-19.2 22.4-32 35.2-57.6 35.2-3.2 0-3.2-3.2-6.4-3.2 3.2 0 3.2-3.2 6.4-3.2 35.2-28.8 64-67.2 64-118.4 0-25.6-6.4-48-19.2-67.2-12.8-19.2-35.2-32-60.8-32z m-3.2 64c9.6 0 9.6 0 12.8 6.4 3.2 6.4 6.4 16 6.4 32 0 19.2-9.6 38.4-25.6 54.4 0-9.6-6.4-22.4-6.4-28.8 0-25.6 3.2-44.8 9.6-54.4 3.2-6.4 3.2-9.6 3.2-9.6z" p-id="2770"></path></svg>