<?xml version="1.0" standalone="no"?><!DOCTYPE svg PUBLIC "-//W3C//DTD SVG 1.1//EN" "http://www.w3.org/Graphics/SVG/1.1/DTD/svg11.dtd"><svg class="icon" width="200px" height="200.00px" viewBox="0 0 1024 1024" version="1.1" xmlns="http://www.w3.org/2000/svg"><path fill="#333333" d="M996.562475 131.235956V848.476632a322.978348 322.978348 0 0 1-1.356084 57.134648 151.651166 151.651166 0 0 1-27.659003 64.401212 138.857918 138.857918 0 0 1-80.3416 50.09836 236.700681 236.700681 0 0 1-52.401145 2.712169H189.999339a246.832934 246.832934 0 0 1-48.358479-1.893401 137.757698 137.757698 0 0 1-81.416232-46.874462 151.369715 151.369715 0 0 1-30.08972-63.60803 329.067934 329.067934 0 0 1-2.149266-63.32658v-675.483513a293.553877 293.553877 0 0 1 3.479763-65.194394A137.348314 137.348314 0 0 1 118.254802 8.625464 221.655821 221.655821 0 0 1 194.835187 0.540131h516.054052c19.343392 0 141.03277 0.179105 160.376162 0.255865a154.695959 154.695959 0 0 1 53.475778 16.170666 143.437901 143.437901 0 0 1 63.966242 74.917262 154.823892 154.823892 0 0 1 6.447797 25.867948c0.51173 4.503223 0.9467 8.98086 1.407257 13.484084z m-76.580384 4.298532l-0.537317-5.654616-3.50535-13.484084a62.891609 62.891609 0 0 0-25.586497-30.447931 111.736231 111.736231 0 0 0-58.593077-8.622649H204.583642a227.412783 227.412783 0 0 0-54.550411 1.8934 61.407592 61.407592 0 0 0-42.703863 40.938395 170.841039 170.841039 0 0 0-2.686582 44.725196v686.255429a222.065205 222.065205 0 0 0 1.330498 46.900049 71.642191 71.642191 0 0 0 15.351898 28.835981c15.761282 19.548083 41.833922 19.113113 77.117701 19.113113h633.163448a183.352836 183.352836 0 0 0 42.447998-1.867814 62.149601 62.149601 0 0 0 33.59507-22.362598c14.09816-19.241046 12.358278-40.145213 12.358278-73.049448V135.534488zM828.408019 507.152766a35.821095 35.821095 0 0 1-28.477771 39.889349 141.083943 141.083943 0 0 1-28.145146 0.537316h-362.816524a36.15372 36.15372 0 0 1-5.910481-70.618731 121.97083 121.97083 0 0 1 29.833855-1.074633h341.323867a95.974949 95.974949 0 0 1 33.59507 2.968034 36.614277 36.614277 0 0 1 18.524624 19.676016z m-4.145013 231.992766a35.514057 35.514057 0 0 1-29.552403 37.995948l-48.358479 0.281451H458.32493c-42.192133 0-74.78933 5.756962-81.134781-31.522564a33.467138 33.467138 0 0 1 4.01708-20.750649c13.202632-25.816775 45.006648-19.420151 82.235001-19.420151H734.991719a197.476582 197.476582 0 0 1 71.207221 4.60557 37.10042 37.10042 0 0 1 16.375358 20.187746z m10.464878-461.836266a36.691036 36.691036 0 0 1-17.475578 35.56523 162.423081 162.423081 0 0 1-67.164554 4.835848h-296.803362c-40.759289 0-69.979069 4.01708-76.043068-31.778429a33.467138 33.467138 0 0 1 4.01708-20.750648c12.255932-23.769855 38.021534-19.420151 72.81917-19.420151h309.59661a154.823892 154.823892 0 0 1 50.789196 3.249485 36.179306 36.179306 0 0 1 18.268759 19.676016zM230.937734 230.818601a51.172993 51.172993 0 1 1-51.172994 51.172994 51.172993 51.172993 0 0 1 51.172994-51.172994z m0 230.278471a51.172993 51.172993 0 1 1-51.172994 51.172993 51.172993 51.172993 0 0 1 51.172994-51.172993z m0 230.278471a51.172993 51.172993 0 1 1-51.172994 51.172993 51.172993 51.172993 0 0 1 51.172994-51.172993z" /></svg>