<svg viewBox="0 0 24 24" fill="none" xmlns="http://www.w3.org/2000/svg" focusable="false"><path opacity=".75" d="M20.2 5H7.8c-.5 0-.8-.3-.8-.7v-.5c0-.5.3-.8.8-.8h12.5c.4 0 .7.3.7.8v.5c0 .4-.3.7-.8.7zM7.8 13h12.5c.4 0 .8.3.8.8v.5c0 .4-.3.8-.8.8H7.8c-.5-.1-.8-.4-.8-.8v-.5c0-.5.3-.8.8-.8z" fill="currentColor"></path><path d="M4.2 5h-.5c-.4 0-.7-.3-.7-.7v-.5c0-.5.3-.8.7-.8h.5c.5 0 .8.3.8.8v.5c0 .4-.3.7-.8.7zm-.5 8h.5c.5 0 .8.3.8.7v.5c0 .5-.3.8-.8.8h-.5c-.4 0-.7-.3-.7-.7v-.5c0-.5.3-.8.7-.8z" fill="currentColor"></path><path opacity=".5" d="M7.5 16.5h11m-11-10h11m-11 2h11m0 2h-11m11 8h-11m11 2h-11" stroke="currentColor" stroke-miterlimit="10" stroke-linecap="round"></path></svg>