<?xml version="1.0" standalone="no"?><!DOCTYPE svg PUBLIC "-//W3C//DTD SVG 1.1//EN" "http://www.w3.org/Graphics/SVG/1.1/DTD/svg11.dtd"><svg t="1646715550213" class="icon" viewBox="0 0 1024 1024" version="1.1" xmlns="http://www.w3.org/2000/svg" p-id="2947" xmlns:xlink="http://www.w3.org/1999/xlink" width="200" height="200"><defs><style type="text/css"></style></defs><path d="M726.624 64L864 201.376V960H160V64h566.624z m-24.256 32H192v832h640V229.92h-65.6a64 64 0 0 1-64-64L702.368 96z" fill="#646E7F" p-id="2948"></path><path d="M491.552 320c8.768 0 18.176 3.2 24.832 9.024 6.624 5.792 10.464 13.344 12.736 20.832 4.512 14.976 4 31.36 1.472 50.048-1.856 13.504-9.92 31.456-14.08 46.912 1.024 1.76 0.864 2.976 1.856 4.736 16.96 28.864 39.808 57.92 64.16 78.912 1.6 1.376 3.136 1.92 4.736 3.104 12-2.208 26.432-7.936 37.216-9.088 20.384-2.048 38.08-2.368 53.696 1.856 7.872 2.144 15.488 5.504 21.984 11.84 6.4 6.336 10.464 16.192 10.464 25.44 0 11.36-6.88 26.24-18.336 32.448-11.36 6.208-23.04 6.88-38.176 6.88-26.752 0-51.2-12.064-74.176-27.584-27.52 5.952-53.696 10.24-83.104 20.416-21.76 7.488-35.392 16.256-54.56 24.736-5.952 9.536-10.752 22.752-16.8 30.944-12 16.128-23.904 29.344-37.28 38.336-13.376 9.024-31.84 14.304-47.904 5.824-7.552-3.904-14.88-9.92-18.4-19.2-3.52-9.216-1.664-19.456 1.824-26.656 7.2-14.4 19.424-23.52 34.848-33.664 13.76-9.024 37.28-16.832 55.904-25.536 14.304-24.192 29.184-47.264 41.344-76.384 9.536-22.848 12.608-41.472 18.944-62.848-12.768-25.152-22.624-49.664-25.216-71.36-1.696-13.76-1.216-26.976 5.504-39.264 6.656-12.384 21.856-20.704 36.512-20.704z m10.24 176.16c-4.192 11.616-5.056 21.44-9.92 33.152-5.376 12.8-12.8 22.08-18.72 34.528 4.16-1.536 6.624-3.584 10.912-5.056 20.16-6.944 38.112-8.864 58.144-14.208a350.176 350.176 0 0 1-40.416-48.416z" fill="#F74C4C" p-id="2949"></path></svg>