<?xml version="1.0" standalone="no"?><!DOCTYPE svg PUBLIC "-//W3C//DTD SVG 1.1//EN" "http://www.w3.org/Graphics/SVG/1.1/DTD/svg11.dtd"><svg class="icon" width="200px" height="200.00px" viewBox="0 0 1024 1024" version="1.1" xmlns="http://www.w3.org/2000/svg"><path fill="#333333" d="M860.444444 298.666667h-384c-66.659556 0-120.888889-54.229333-120.888888-120.888889S409.784889 56.888889 476.444444 56.888889h384c66.659556 0 120.888889 54.229333 120.888889 120.888889S927.104 298.666667 860.444444 298.666667z m-384-184.888889c-35.285333 0-64 28.714667-64 64s28.714667 64 64 64h384c35.285333 0 64-28.714667 64-64S895.729778 113.777778 860.444444 113.777778h-384zM860.444444 967.111111h-384c-66.659556 0-120.888889-54.229333-120.888888-120.888889s54.229333-120.888889 120.888888-120.888889h384c66.659556 0 120.888889 54.229333 120.888889 120.888889S927.104 967.111111 860.444444 967.111111z m-384-184.888889c-35.285333 0-64 28.714667-64 64s28.714667 64 64 64h384c35.285333 0 64-28.714667 64-64S895.729778 782.222222 860.444444 782.222222h-384zM860.444444 640h-384c-66.659556 0-120.888889-54.229333-120.888888-120.888889s54.229333-120.888889 120.888888-120.888889h384c66.659556 0 120.888889 54.229333 120.888889 120.888889S927.104 640 860.444444 640z m-384-184.888889c-35.285333 0-64 28.714667-64 64s28.714667 64 64 64h384c35.285333 0 64-28.714667 64-64S895.729778 455.111111 860.444444 455.111111h-384z"  /><path fill="#333333" d="M177.777778 298.666667h-14.222222C96.896 298.666667 42.666667 244.437333 42.666667 177.777778S96.896 56.888889 163.555556 56.888889h14.222222c66.659556 0 120.888889 54.229333 120.888889 120.888889S244.437333 298.666667 177.777778 298.666667z m-14.222222-184.888889C128.270222 113.777778 99.555556 142.492444 99.555556 177.777778S128.270222 241.777778 163.555556 241.777778h14.222222c35.285333 0 64-28.714667 64-64S213.063111 113.777778 177.777778 113.777778h-14.222222zM177.777778 967.111111h-14.222222C96.896 967.111111 42.666667 912.881778 42.666667 846.222222S96.896 725.333333 163.555556 725.333333h14.222222c66.659556 0 120.888889 54.229333 120.888889 120.888889S244.437333 967.111111 177.777778 967.111111z m-14.222222-184.888889C128.270222 782.222222 99.555556 810.936889 99.555556 846.222222S128.270222 910.222222 163.555556 910.222222h14.222222c35.285333 0 64-28.714667 64-64S213.063111 782.222222 177.777778 782.222222h-14.222222zM177.777778 640h-14.222222C96.896 640 42.666667 585.770667 42.666667 519.111111S96.896 398.222222 163.555556 398.222222h14.222222c66.659556 0 120.888889 54.229333 120.888889 120.888889S244.437333 640 177.777778 640z m-14.222222-184.888889C128.270222 455.111111 99.555556 483.825778 99.555556 519.111111S128.270222 583.111111 163.555556 583.111111h14.222222c35.285333 0 64-28.714667 64-64S213.063111 455.111111 177.777778 455.111111h-14.222222z"  /></svg>